<svg xmlns="http://www.w3.org/2000/svg" viewBox="0 0 64 64" width="64" height="64">
  <defs>
    <g id="mano">
      <path d="M8 36 L8 50 Q8 59 17 59 L35 59 Q44 59 44 50 L44 36 Z" />
      <rect x="9.5" y="17" width="8" height="25" rx="4" />
      <rect x="18" y="9" width="8" height="33" rx="4" />
      <rect x="26.5" y="7" width="8" height="35" rx="4" />
      <rect x="35" y="14" width="8" height="28" rx="4" />
      <rect x="1.5" y="28" width="8" height="20" rx="4" transform="rotate(-33 5.5 38)" />
    </g>
  </defs>
  <rect width="64" height="64" rx="14" fill="#084273" />
  <g fill="#10b2f0">
    <use href="#mano" transform="translate(2 14) scale(0.56) rotate(-6 26 33)" />
    <use href="#mano" transform="translate(62 14) scale(-0.56 0.56) rotate(-6 26 33)" />
  </g>
</svg>
