<?xml version="1.0" encoding="UTF-8"?>
<svg xmlns="http://www.w3.org/2000/svg" xmlns:xlink="http://www.w3.org/1999/xlink" width="6916.5354pt" height="3458.2677pt" viewBox="0 0 6916.5354 3458.2677">
<path fill-rule="nonzero" fill="rgb(6.271362%, 69.856262%, 94.122314%)" fill-opacity="1" d="M 1690.425781 2172.578125 L 1998.199219 2172.578125 C 1985.097656 2087.253906 1975.625 2027.734375 1971.804688 2008.09375 C 1949.011719 1890.96875 1945.636719 1826.597656 1978.019531 1763.921875 C 2010.40625 1701.246094 2095.394531 1576.011719 2120.035156 1501.789062 C 2144.679688 1427.570312 2178.554688 1325.367188 2208.757812 1289.101562 C 2238.957031 1252.835938 2333.3125 1170.136719 2333.3125 1170.136719 C 2333.3125 1170.136719 2351.285156 1150.058594 2327.691406 1130.992188 C 2304.097656 1111.921875 2241.5625 1075.789062 2176.851562 1134.207031 C 2112.140625 1192.621094 2075.386719 1239.992188 2036.074219 1283.910156 C 1996.761719 1327.832031 1952.328125 1364.851562 1914.070312 1315.480469 C 1875.808594 1266.109375 1840.042969 1219 1829.925781 1139.449219 C 1819.808594 1059.898438 1777.328125 680.84375 1777.328125 680.84375 C 1777.328125 680.84375 1782.5 575.378906 1716.222656 581.285156 C 1649.945312 587.1875 1663.304688 637.878906 1663.496094 664.164062 C 1663.6875 690.453125 1681.699219 1079.171875 1681.699219 1079.171875 C 1681.699219 1079.171875 1687.070312 1113.554688 1660.171875 1122.148438 C 1633.277344 1130.746094 1624.351562 1119.269531 1610.867188 1088.902344 C 1597.382812 1058.542969 1482.402344 816.007812 1441.332031 735.710938 C 1400.257812 655.410156 1362.246094 588.097656 1314.503906 607.363281 C 1266.765625 626.625 1279.75 670.167969 1293.671875 708.875 C 1307.59375 747.582031 1479.753906 1150.839844 1479.753906 1150.839844 C 1479.753906 1150.839844 1487.683594 1165.960938 1480.757812 1169.914062 C 1473.832031 1173.863281 1466.214844 1164.707031 1466.214844 1164.707031 L 1204.875 806.816406 C 1204.875 806.816406 1174.105469 764.21875 1137.347656 788.878906 C 1100.59375 813.539062 1119.382812 854.378906 1128.554688 870.628906 C 1137.734375 886.875 1377.167969 1280.589844 1377.167969 1280.589844 C 1377.167969 1280.589844 1386.785156 1305.183594 1373.242188 1319.050781 C 1359.699219 1332.914062 1340.167969 1323.195312 1320.253906 1306.320312 C 1300.347656 1289.445312 1084.710938 1122.773438 1084.710938 1122.773438 C 1084.710938 1122.773438 1042.640625 1068.824219 1008.757812 1102.894531 C 974.875 1136.964844 999.277344 1171.53125 1027.988281 1197.5 C 1056.699219 1223.46875 1261.539062 1411.035156 1261.539062 1411.035156 C 1261.539062 1411.035156 1288.691406 1452.625 1328.828125 1515.046875 C 1368.960938 1577.464844 1404.105469 1658.082031 1458.90625 1728.085938 C 1513.710938 1798.097656 1554.210938 1822.246094 1563.769531 1913.78125 C 1567.585938 1950.320312 1584.316406 2240.234375 1603.039062 2575.421875 L 1690.425781 2575.421875 Z M 1690.425781 2172.578125 "/>
<path fill-rule="nonzero" fill="rgb(6.271362%, 69.856262%, 94.122314%)" fill-opacity="1" d="M 2448.195312 2172.578125 L 2322.667969 2172.578125 L 2250.691406 2286.609375 L 2179.285156 2172.578125 L 2050.878906 2172.578125 L 2183.320312 2371.707031 L 2056.601562 2560.660156 C 2040.683594 2453.675781 2025.667969 2353.371094 2012.75 2268.082031 L 1800.40625 2268.082031 L 1800.40625 2329.441406 L 1993.878906 2329.441406 L 1993.878906 2418.015625 L 1800.40625 2418.015625 L 1800.40625 2482.261719 L 2016.914062 2482.261719 L 2016.914062 2575.421875 L 2046.703125 2575.421875 L 2045.121094 2577.777344 L 2170.65625 2577.777344 L 2248.386719 2455.636719 L 2325.546875 2577.777344 L 2453.953125 2577.777344 L 2315.757812 2370.546875 Z M 2448.195312 2172.578125 "/>
<path fill-rule="nonzero" fill="rgb(6.271362%, 69.856262%, 94.122314%)" fill-opacity="1" d="M 2473.53125 2270.976562 L 2594.453125 2270.976562 L 2594.453125 2577.777344 L 2706.160156 2577.777344 L 2706.160156 2270.976562 L 2827.082031 2270.976562 L 2827.082031 2172.578125 L 2473.53125 2172.578125 Z M 2473.53125 2270.976562 "/>
<path fill-rule="nonzero" fill="rgb(6.271362%, 69.856262%, 94.122314%)" fill-opacity="1" d="M 3202.507812 2482.261719 L 2986 2482.261719 L 2986 2418.015625 L 3179.476562 2418.015625 L 3179.476562 2329.441406 L 2986 2329.441406 L 2986 2268.082031 L 3199.628906 2268.082031 L 3199.628906 2172.578125 L 2876.019531 2172.578125 L 2876.019531 2577.777344 L 3202.507812 2577.777344 Z M 3202.507812 2482.261719 "/>
<path fill-rule="nonzero" fill="rgb(6.271362%, 69.856262%, 94.122314%)" fill-opacity="1" d="M 3640.699219 2172.578125 L 3530.71875 2172.578125 L 3530.71875 2386.757812 L 3364.535156 2172.578125 L 3260.085938 2172.578125 L 3260.085938 2577.777344 L 3370.070312 2577.777344 L 3370.070312 2355.5 L 3542.601562 2577.777344 L 3640.699219 2577.777344 Z M 3640.699219 2172.578125 "/>
<path fill-rule="nonzero" fill="rgb(6.271362%, 69.856262%, 94.122314%)" fill-opacity="1" d="M 4095.011719 2374.015625 L 4095.011719 2372.863281 C 4095.011719 2343.535156 4089.917969 2316.621094 4079.753906 2292.109375 C 4069.574219 2267.609375 4054.789062 2246.476562 4035.414062 2228.722656 C 4016.023438 2210.980469 3992.226562 2197.175781 3964.011719 2187.339844 C 3935.796875 2177.492188 3903.644531 2172.578125 3867.5625 2172.578125 L 3712.089844 2172.578125 L 3712.089844 2577.777344 L 3865.257812 2577.777344 C 3901.339844 2577.777344 3933.683594 2572.667969 3962.285156 2562.4375 C 3990.878906 2552.210938 4014.972656 2538.03125 4034.550781 2519.894531 C 4054.128906 2501.753906 4069.097656 2480.234375 4079.464844 2455.347656 C 4089.828125 2430.457031 4095.011719 2403.351562 4095.011719 2374.015625 Z M 3981 2375.75 C 3981 2408.554688 3970.785156 2433.835938 3950.363281 2451.582031 C 3929.941406 2469.335938 3902.976562 2478.214844 3869.464844 2478.214844 L 3823.800781 2478.214844 L 3823.800781 2272.136719 L 3869.464844 2272.136719 C 3902.976562 2272.136719 3929.941406 2281.117188 3950.363281 2299.050781 C 3970.785156 2316.996094 3981 2342.183594 3981 2374.59375 Z M 3981 2375.75 "/>
<path fill-rule="nonzero" fill="rgb(6.271362%, 69.856262%, 94.122314%)" fill-opacity="1" d="M 4154.898438 2577.777344 L 4267.183594 2577.777344 L 4267.183594 2172.578125 L 4154.898438 2172.578125 Z M 4154.898438 2577.777344 "/>
<path fill-rule="nonzero" fill="rgb(6.271362%, 69.856262%, 94.122314%)" fill-opacity="1" d="M 4723.800781 2374.015625 L 4723.800781 2372.863281 C 4723.800781 2343.535156 4718.710938 2316.621094 4708.542969 2292.109375 C 4698.363281 2267.609375 4683.582031 2246.476562 4664.203125 2228.722656 C 4644.8125 2210.980469 4621.015625 2197.175781 4592.800781 2187.339844 C 4564.589844 2177.492188 4532.433594 2172.578125 4496.355469 2172.578125 L 4340.878906 2172.578125 L 4340.878906 2577.777344 L 4494.050781 2577.777344 C 4530.128906 2577.777344 4562.472656 2572.667969 4591.074219 2562.4375 C 4619.667969 2552.210938 4643.761719 2538.03125 4663.339844 2519.894531 C 4682.917969 2501.753906 4697.890625 2480.234375 4708.253906 2455.347656 C 4718.617188 2430.457031 4723.800781 2403.351562 4723.800781 2374.015625 Z M 4609.789062 2375.75 C 4609.789062 2408.554688 4599.578125 2433.835938 4579.152344 2451.582031 C 4558.730469 2469.335938 4531.765625 2478.214844 4498.253906 2478.214844 L 4452.589844 2478.214844 L 4452.589844 2272.136719 L 4498.253906 2272.136719 C 4531.765625 2272.136719 4558.730469 2281.117188 4579.152344 2299.050781 C 4599.578125 2316.996094 4609.789062 2342.183594 4609.789062 2374.59375 Z M 4609.789062 2375.75 "/>
<path fill-rule="nonzero" fill="rgb(6.271362%, 69.856262%, 94.122314%)" fill-opacity="1" d="M 4895.394531 2505.421875 L 4867.542969 2575.421875 L 5079.28125 2575.421875 L 5050.867188 2505.421875 Z M 4895.394531 2505.421875 "/>
<path fill-rule="nonzero" fill="rgb(6.271362%, 69.856262%, 94.122314%)" fill-opacity="1" d="M 5915.808594 1614.664062 C 5893.730469 1576.996094 5844.589844 1614.800781 5844.589844 1614.800781 C 5844.589844 1614.800781 5617.492188 1712.039062 5596.191406 1722.324219 C 5574.886719 1732.605469 5555.527344 1736.691406 5546.761719 1721.421875 C 5537.996094 1706.144531 5551.992188 1686.730469 5551.992188 1686.730469 C 5551.992188 1686.730469 5851.261719 1395.4375 5862.992188 1383.253906 C 5874.722656 1371.070312 5900.449219 1339.472656 5873.722656 1309.421875 C 5847 1279.367188 5810.34375 1309.773438 5810.34375 1309.773438 L 5499.921875 1564.597656 C 5499.921875 1564.597656 5491.164062 1570.90625 5485.96875 1565.851562 C 5480.777344 1560.800781 5491.152344 1549.324219 5491.152344 1549.324219 C 5491.152344 1549.324219 5733.464844 1234.292969 5754.4375 1203.460938 C 5775.410156 1172.625 5796.648438 1137.332031 5759.050781 1109.515625 C 5721.457031 1081.695312 5672.855469 1132.164062 5618.640625 1193.347656 C 5564.425781 1254.527344 5408.640625 1441.386719 5389.9375 1464.988281 C 5371.234375 1488.589844 5360.800781 1496.640625 5339.109375 1482.949219 C 5317.421875 1469.257812 5329.902344 1440.277344 5329.902344 1440.277344 C 5329.902344 1440.277344 5433.492188 1102.847656 5439.59375 1079.792969 C 5445.695312 1056.742188 5468.878906 1015.25 5411.980469 994.941406 C 5355.082031 974.632812 5335.808594 1068.472656 5335.808594 1068.472656 C 5335.808594 1068.472656 5212.910156 1391.832031 5186.058594 1459.417969 C 5159.207031 1527 5117.148438 1560.234375 5072.382812 1594.886719 C 5027.617188 1629.53125 4996.9375 1586.867188 4972.3125 1539.3125 C 4947.6875 1491.75 4926.09375 1441.742188 4882.421875 1375.652344 C 4838.753906 1309.5625 4775.652344 1327.039062 4750.617188 1338.410156 C 4725.585938 1349.785156 4736.839844 1371.527344 4736.839844 1371.527344 C 4736.839844 1371.527344 4801.070312 1465.714844 4819.417969 1504.46875 C 4837.765625 1543.222656 4844.453125 1640.75 4849.351562 1711.585938 C 4854.246094 1782.421875 4900.644531 1911.84375 4914.945312 1974.300781 C 4929.246094 2036.761719 4911.75 2092.546875 4865.277344 2190.261719 C 4850.28125 2221.796875 4783.609375 2378.171875 4700.222656 2575.421875 L 4750.128906 2575.421875 L 4920.734375 2169.683594 L 5028.410156 2169.683594 L 5156.335938 2473.921875 C 5203.566406 2326.066406 5237.804688 2220.074219 5245.078125 2200.492188 C 5274.144531 2122.25 5315.1875 2110.273438 5379.140625 2061.265625 C 5443.097656 2012.257812 5492.179688 1949.445312 5541.535156 1903.757812 C 5590.890625 1858.074219 5624.136719 1827.722656 5624.136719 1827.722656 C 5624.136719 1827.722656 5846.460938 1709.664062 5877.550781 1693.398438 C 5908.644531 1677.128906 5937.890625 1652.328125 5915.808594 1614.664062 "/>
<path fill-rule="nonzero" fill="rgb(6.271362%, 69.856262%, 94.122314%)" fill-opacity="1" d="M 4928.21875 2418.585938 L 5018.621094 2418.585938 L 4973.707031 2303.394531 Z M 4928.21875 2418.585938 "/>
<path fill-rule="nonzero" fill="rgb(6.271362%, 69.856262%, 94.122314%)" fill-opacity="1" d="M 5520.15625 2368.039062 C 5507.101562 2358.410156 5491.265625 2350.222656 5472.648438 2343.472656 C 5454.027344 2336.734375 5433.210938 2330.863281 5410.175781 2325.851562 C 5396.355469 2322.78125 5384.933594 2319.800781 5375.914062 2316.902344 C 5366.890625 2314.015625 5359.789062 2311.128906 5354.609375 2308.230469 C 5349.425781 2305.34375 5345.773438 2302.167969 5343.667969 2298.691406 C 5341.554688 2295.226562 5340.5 2291.191406 5340.5 2286.566406 L 5340.5 2285.40625 C 5340.5 2278.089844 5343.859375 2271.925781 5350.582031 2266.914062 C 5357.289062 2261.90625 5367.367188 2259.40625 5380.8125 2259.40625 C 5398.847656 2259.40625 5417.5625 2262.78125 5436.949219 2269.53125 C 5456.332031 2276.289062 5475.242188 2286.230469 5493.671875 2299.339844 L 5549.523438 2219.796875 C 5527.644531 2201.941406 5503.167969 2188.445312 5476.105469 2179.324219 C 5449.042969 2170.199219 5418.238281 2165.628906 5383.6875 2165.628906 C 5359.503906 2165.628906 5337.8125 2168.8125 5318.621094 2175.15625 C 5299.421875 2181.519531 5283.007812 2190.472656 5269.386719 2202.039062 C 5255.757812 2213.59375 5245.394531 2227.265625 5238.292969 2243.0625 C 5231.1875 2258.851562 5227.640625 2276.191406 5227.640625 2295.070312 L 5227.640625 2296.21875 C 5227.640625 2317.015625 5231.574219 2334.453125 5239.445312 2348.511719 C 5247.308594 2362.578125 5258.058594 2374.320312 5271.691406 2383.753906 C 5285.3125 2393.199219 5301.34375 2400.910156 5319.773438 2406.878906 C 5338.199219 2412.847656 5358.152344 2418.339844 5379.660156 2423.34375 C 5393.476562 2426.421875 5404.703125 2429.40625 5413.339844 2432.300781 C 5421.980469 2435.199219 5428.886719 2438.183594 5434.070312 2441.253906 C 5439.253906 2444.339844 5442.800781 2447.519531 5444.722656 2450.792969 C 5446.640625 2454.066406 5447.605469 2457.820312 5447.605469 2462.0625 L 5447.605469 2463.210938 C 5447.605469 2472.074219 5443.664062 2478.917969 5435.796875 2483.726562 C 5427.929688 2488.546875 5416.507812 2490.949219 5401.539062 2490.949219 C 5354.703125 2490.949219 5311.136719 2474.738281 5270.828125 2442.324219 L 5208.636719 2517.164062 C 5233.585938 2539.683594 5262.28125 2556.574219 5294.722656 2567.832031 C 5327.160156 2579.082031 5361.417969 2584.726562 5397.507812 2584.726562 C 5422.070312 2584.726562 5444.335938 2581.734375 5464.300781 2575.765625 C 5484.257812 2569.796875 5501.34375 2561.136719 5515.550781 2549.765625 C 5529.746094 2538.40625 5540.789062 2524.628906 5548.65625 2508.449219 C 5556.523438 2492.277344 5560.464844 2473.785156 5560.464844 2452.976562 L 5560.464844 2451.820312 C 5560.464844 2432.953125 5557.007812 2416.671875 5550.101562 2403 C 5543.191406 2389.320312 5533.203125 2377.675781 5520.15625 2368.039062 "/>
<path fill-rule="nonzero" fill="rgb(6.271362%, 69.856262%, 94.122314%)" fill-opacity="1" d="M 2440.058594 2157.464844 L 2440.058594 1752.257812 L 2322.011719 1752.257812 L 2225.851562 1909.132812 L 2129.691406 1752.257812 L 2011.644531 1752.257812 L 2011.644531 2157.464844 L 2121.628906 2157.464844 L 2121.628906 1925.929688 L 2223.835938 2083.375 L 2226.136719 2083.375 L 2328.917969 1924.773438 L 2328.917969 2157.464844 Z M 2440.058594 2157.464844 "/>
<path fill-rule="nonzero" fill="rgb(6.271362%, 69.856262%, 94.122314%)" fill-opacity="1" d="M 2631.222656 2085.109375 L 2786.691406 2085.109375 L 2816.0625 2157.464844 L 2935.832031 2157.464844 L 2764.238281 1749.371094 L 2656.558594 1749.371094 L 2484.964844 2157.464844 L 2602.429688 2157.464844 Z M 2709.53125 1883.085938 L 2754.449219 1998.273438 L 2664.042969 1998.273438 Z M 2709.53125 1883.085938 "/>
<path fill-rule="nonzero" fill="rgb(6.271362%, 69.856262%, 94.122314%)" fill-opacity="1" d="M 3090.722656 1935.179688 L 3263.257812 2157.464844 L 3361.355469 2157.464844 L 3361.355469 1752.257812 L 3251.375 1752.257812 L 3251.375 1966.4375 L 3085.1875 1752.257812 L 2980.738281 1752.257812 L 2980.738281 2157.464844 L 3090.722656 2157.464844 Z M 3090.722656 1935.179688 "/>
<path fill-rule="nonzero" fill="rgb(6.271362%, 69.856262%, 94.122314%)" fill-opacity="1" d="M 3486.304688 2104.214844 C 3505.496094 2123.117188 3528.339844 2138.070312 3554.828125 2149.078125 C 3581.3125 2160.074219 3610.109375 2165.574219 3641.199219 2165.574219 C 3672.292969 2165.574219 3701.082031 2160.074219 3727.570312 2149.078125 C 3754.058594 2138.070312 3777.089844 2123.03125 3796.671875 2103.917969 C 3816.246094 2084.820312 3831.507812 2062.441406 3842.449219 2036.773438 C 3853.386719 2011.113281 3858.859375 1983.8125 3858.859375 1954.871094 L 3858.859375 1953.714844 C 3858.859375 1924.773438 3853.386719 1897.558594 3842.449219 1872.089844 C 3831.507812 1846.617188 3816.441406 1824.429688 3797.246094 1805.519531 C 3778.046875 1786.617188 3755.207031 1771.652344 3728.722656 1760.65625 C 3702.234375 1749.664062 3673.441406 1744.160156 3642.347656 1744.160156 C 3611.257812 1744.160156 3582.464844 1749.664062 3555.980469 1760.65625 C 3529.488281 1771.652344 3506.457031 1786.710938 3486.878906 1805.808594 C 3467.300781 1824.910156 3452.042969 1847.300781 3441.105469 1872.960938 C 3430.164062 1898.621094 3424.691406 1925.929688 3424.691406 1954.871094 L 3424.691406 1956.027344 C 3424.691406 1984.972656 3430.164062 2012.175781 3441.105469 2037.644531 C 3452.042969 2063.109375 3467.105469 2085.3125 3486.304688 2104.214844 Z M 3538.703125 1953.714844 C 3538.703125 1939.039062 3541.105469 1925.15625 3545.917969 1912.03125 C 3550.722656 1898.917969 3557.652344 1887.429688 3566.703125 1877.59375 C 3575.753906 1867.746094 3586.535156 1859.9375 3599.046875 1854.144531 C 3611.550781 1848.355469 3625.507812 1845.457031 3640.910156 1845.457031 C 3656.304688 1845.457031 3670.359375 1848.457031 3683.0625 1854.433594 C 3695.765625 1860.425781 3706.734375 1868.433594 3715.976562 1878.453125 C 3725.207031 1888.492188 3732.328125 1900.074219 3737.335938 1913.1875 C 3742.339844 1926.316406 3744.847656 1940.199219 3744.847656 1954.871094 L 3744.847656 1956.027344 C 3744.847656 1970.695312 3742.339844 1984.585938 3737.335938 1997.695312 C 3732.328125 2010.824219 3725.402344 2022.304688 3716.550781 2032.148438 C 3707.699219 2041.976562 3696.917969 2049.796875 3684.214844 2055.582031 C 3671.511719 2061.375 3657.457031 2064.269531 3642.0625 2064.269531 C 3626.660156 2064.269531 3612.617188 2061.285156 3599.910156 2055.300781 C 3587.210938 2049.3125 3576.328125 2041.3125 3567.289062 2031.273438 C 3558.234375 2021.25 3551.207031 2009.667969 3546.207031 1996.539062 C 3541.203125 1983.429688 3538.703125 1969.535156 3538.703125 1954.871094 Z M 3538.703125 1953.714844 "/>
<path fill-rule="nonzero" fill="rgb(6.271362%, 69.856262%, 94.122314%)" fill-opacity="1" d="M 4119.410156 2063.425781 C 4111.542969 2068.238281 4100.121094 2070.640625 4085.152344 2070.640625 C 4038.316406 2070.640625 3994.75 2054.433594 3954.441406 2022.015625 L 3892.25 2096.84375 C 3917.199219 2119.371094 3945.894531 2136.265625 3978.335938 2147.53125 C 4010.773438 2158.785156 4045.03125 2164.417969 4081.117188 2164.417969 C 4105.683594 2164.417969 4127.949219 2161.433594 4147.914062 2155.457031 C 4167.871094 2149.488281 4184.957031 2140.828125 4199.164062 2129.453125 C 4213.359375 2118.097656 4224.402344 2104.320312 4232.269531 2088.136719 C 4240.136719 2071.964844 4244.078125 2053.472656 4244.078125 2032.667969 L 4244.078125 2031.507812 C 4244.078125 2012.644531 4240.621094 1996.363281 4233.710938 1982.691406 C 4226.804688 1969.019531 4216.816406 1957.363281 4203.769531 1947.730469 C 4190.714844 1938.09375 4174.878906 1929.914062 4156.261719 1923.164062 C 4137.640625 1916.425781 4116.824219 1910.554688 4093.789062 1905.542969 C 4079.96875 1902.472656 4068.542969 1899.480469 4059.527344 1896.59375 C 4050.503906 1893.703125 4043.402344 1890.824219 4038.222656 1887.929688 C 4033.042969 1885.035156 4029.386719 1881.859375 4027.28125 1878.382812 C 4025.167969 1874.925781 4024.113281 1870.871094 4024.113281 1866.253906 L 4024.113281 1865.097656 C 4024.113281 1857.777344 4027.472656 1851.617188 4034.195312 1846.617188 C 4040.902344 1841.59375 4050.980469 1839.09375 4064.425781 1839.09375 C 4082.460938 1839.09375 4101.175781 1842.472656 4120.5625 1849.230469 C 4139.941406 1855.980469 4158.855469 1865.921875 4177.285156 1879.03125 L 4233.136719 1799.488281 C 4211.257812 1781.628906 4186.78125 1768.144531 4159.722656 1759.015625 C 4132.652344 1749.890625 4101.851562 1745.316406 4067.300781 1745.316406 C 4043.113281 1745.316406 4021.425781 1748.503906 4002.234375 1754.855469 C 3983.035156 1761.210938 3966.621094 1770.160156 3953 1781.726562 C 3939.367188 1793.277344 3929.007812 1806.957031 3921.90625 1822.746094 C 3914.800781 1838.542969 3911.253906 1855.882812 3911.253906 1874.757812 L 3911.253906 1875.910156 C 3911.253906 1896.707031 3915.1875 1914.152344 3923.058594 1928.203125 C 3930.921875 1942.269531 3941.671875 1954.011719 3955.304688 1963.453125 C 3968.929688 1972.894531 3984.957031 1980.601562 4003.386719 1986.570312 C 4021.808594 1992.535156 4041.765625 1998.03125 4063.273438 2003.03125 C 4077.089844 2006.113281 4088.316406 2009.09375 4096.953125 2011.992188 C 4105.59375 2014.886719 4112.5 2017.871094 4117.683594 2020.953125 C 4122.867188 2024.03125 4126.414062 2027.199219 4128.335938 2030.484375 C 4130.253906 2033.746094 4131.21875 2037.519531 4131.21875 2041.75 L 4131.21875 2042.890625 C 4131.21875 2051.753906 4127.277344 2058.609375 4119.410156 2063.425781 "/>
<path fill-rule="nonzero" fill="rgb(6.271362%, 69.856262%, 94.122314%)" fill-opacity="1" d="M 1688.769531 2873.375 L 1710.027344 2873.375 L 1710.027344 2790.875 L 1812 2790.875 L 1812 2771.675781 L 1710.027344 2771.675781 L 1710.027344 2703.777344 L 1824.105469 2703.777344 L 1824.105469 2684.03125 L 1688.769531 2684.03125 Z M 1688.769531 2873.375 "/>
<path fill-rule="nonzero" fill="rgb(6.271362%, 69.856262%, 94.122314%)" fill-opacity="1" d="M 2266.988281 2794.121094 C 2266.988281 2814.859375 2261.875 2830.460938 2251.648438 2840.914062 C 2241.425781 2851.375 2227.609375 2856.605469 2210.214844 2856.605469 C 2192.09375 2856.605469 2177.96875 2851.105469 2167.839844 2840.105469 C 2157.699219 2829.109375 2152.636719 2813.324219 2152.636719 2792.769531 L 2152.636719 2684.03125 L 2131.378906 2684.03125 L 2131.378906 2794.121094 C 2131.378906 2807.46875 2133.261719 2819.28125 2137.027344 2829.558594 C 2140.792969 2839.835938 2146.132812 2848.453125 2153.035156 2855.382812 C 2159.941406 2862.335938 2168.191406 2867.558594 2177.789062 2871.078125 C 2187.382812 2874.59375 2198.011719 2876.351562 2209.675781 2876.351562 C 2221.515625 2876.351562 2232.234375 2874.59375 2241.828125 2871.078125 C 2251.425781 2867.558594 2259.679688 2862.28125 2266.582031 2855.253906 C 2273.488281 2848.226562 2278.824219 2839.472656 2282.59375 2829.011719 C 2286.359375 2818.5625 2288.246094 2806.390625 2288.246094 2792.5 L 2288.246094 2684.03125 L 2266.988281 2684.03125 Z M 2266.988281 2794.121094 "/>
<path fill-rule="nonzero" fill="rgb(6.271362%, 69.856262%, 94.122314%)" fill-opacity="1" d="M 2746.191406 2835.78125 L 2627.539062 2684.03125 L 2607.625 2684.03125 L 2607.625 2873.375 L 2628.339844 2873.375 L 2628.339844 2718.117188 L 2749.960938 2873.375 L 2766.910156 2873.375 L 2766.910156 2684.03125 L 2746.191406 2684.03125 Z M 2746.191406 2835.78125 "/>
<path fill-rule="nonzero" fill="rgb(6.271362%, 69.856262%, 94.122314%)" fill-opacity="1" d="M 3226.875 2711.085938 C 3217.996094 2702.609375 3207.410156 2695.984375 3195.125 2691.199219 C 3182.835938 2686.425781 3169.335938 2684.03125 3154.632812 2684.03125 L 3089.246094 2684.03125 L 3089.246094 2873.375 L 3154.632812 2873.375 C 3169.335938 2873.375 3182.835938 2870.945312 3195.125 2866.074219 C 3207.410156 2861.203125 3217.996094 2854.535156 3226.875 2846.054688 C 3235.75 2837.578125 3242.613281 2827.574219 3247.457031 2816.035156 C 3252.300781 2804.496094 3254.71875 2792.050781 3254.71875 2778.703125 L 3254.71875 2778.167969 C 3254.71875 2764.820312 3252.300781 2752.429688 3247.457031 2740.96875 C 3242.613281 2729.523438 3235.75 2719.5625 3226.875 2711.085938 Z M 3232.660156 2779.25 C 3232.660156 2789.710938 3230.820312 2799.492188 3227.144531 2808.59375 C 3223.464844 2817.703125 3218.265625 2825.589844 3211.535156 2832.261719 C 3204.808594 2838.929688 3196.605469 2844.164062 3186.917969 2847.949219 C 3177.230469 2851.734375 3166.46875 2853.632812 3154.632812 2853.632812 L 3110.503906 2853.632812 L 3110.503906 2703.777344 L 3154.632812 2703.777344 C 3166.46875 2703.777344 3177.230469 2705.714844 3186.917969 2709.59375 C 3196.605469 2713.472656 3204.808594 2718.792969 3211.535156 2725.558594 C 3218.265625 2732.316406 3223.464844 2740.257812 3227.144531 2749.359375 C 3230.820312 2758.46875 3232.660156 2768.253906 3232.660156 2778.703125 Z M 3232.660156 2779.25 "/>
<path fill-rule="nonzero" fill="rgb(6.271362%, 69.856262%, 94.122314%)" fill-opacity="1" d="M 3638.40625 2682.679688 L 3552.574219 2873.375 L 3574.371094 2873.375 L 3596.703125 2823.335938 L 3699.21875 2823.335938 L 3721.277344 2873.375 L 3744.148438 2873.375 L 3658.320312 2682.679688 Z M 3605.042969 2804.125 L 3648.09375 2707.566406 L 3690.875 2804.125 Z M 3605.042969 2804.125 "/>
<path fill-rule="nonzero" fill="rgb(6.271362%, 69.856262%, 94.122314%)" fill-opacity="1" d="M 4170.351562 2849.707031 C 4161.019531 2854.492188 4149.898438 2856.875 4136.984375 2856.875 C 4126.582031 2856.875 4116.941406 2854.847656 4108.0625 2850.785156 C 4099.179688 2846.734375 4091.46875 2841.1875 4084.921875 2834.15625 C 4078.375 2827.117188 4073.257812 2818.871094 4069.582031 2809.410156 C 4065.910156 2799.941406 4064.070312 2789.710938 4064.070312 2778.703125 L 4064.070312 2778.167969 C 4064.070312 2767.347656 4065.910156 2757.203125 4069.582031 2747.734375 C 4073.257812 2738.265625 4078.375 2730.015625 4084.921875 2722.984375 C 4091.46875 2715.949219 4099.179688 2710.457031 4108.0625 2706.488281 C 4116.941406 2702.523438 4126.582031 2700.53125 4136.984375 2700.53125 C 4149.898438 2700.53125 4160.972656 2702.96875 4170.21875 2707.839844 C 4179.453125 2712.703125 4188.109375 2718.921875 4196.179688 2726.496094 L 4210.707031 2710.816406 C 4206.042969 2706.304688 4201.199219 2702.203125 4196.179688 2698.503906 C 4191.15625 2694.808594 4185.6875 2691.65625 4179.769531 2689.042969 C 4173.851562 2686.425781 4167.433594 2684.398438 4160.527344 2682.953125 C 4153.621094 2681.515625 4145.867188 2680.785156 4137.253906 2680.785156 C 4123.441406 2680.785156 4110.703125 2683.355469 4099.050781 2688.5 C 4087.386719 2693.640625 4077.34375 2700.671875 4068.910156 2709.59375 C 4060.476562 2718.519531 4053.886719 2728.9375 4049.132812 2740.835938 C 4044.378906 2752.734375 4042.007812 2765.363281 4042.007812 2778.703125 L 4042.007812 2779.25 C 4042.007812 2792.769531 4044.378906 2805.488281 4049.132812 2817.386719 C 4053.886719 2829.289062 4060.476562 2839.605469 4068.910156 2848.355469 C 4077.34375 2857.105469 4087.292969 2864.003906 4098.78125 2869.050781 C 4110.253906 2874.09375 4122.816406 2876.621094 4136.445312 2876.621094 C 4145.058594 2876.621094 4152.863281 2875.804688 4159.855469 2874.183594 C 4166.851562 2872.570312 4173.398438 2870.3125 4179.5 2867.425781 C 4185.59375 2864.539062 4191.289062 2861.070312 4196.585938 2857.007812 C 4201.871094 2852.953125 4206.941406 2848.398438 4211.789062 2843.355469 L 4197.796875 2829.558594 C 4188.824219 2838.210938 4179.675781 2844.933594 4170.351562 2849.707031 "/>
<path fill-rule="nonzero" fill="rgb(6.271362%, 69.856262%, 94.122314%)" fill-opacity="1" d="M 4519.863281 2873.375 L 4541.121094 2873.375 L 4541.121094 2684.03125 L 4519.863281 2684.03125 Z M 4519.863281 2873.375 "/>
<path fill-rule="nonzero" fill="rgb(6.271362%, 69.856262%, 94.122314%)" fill-opacity="1" d="M 5022.746094 2709.867188 C 5014.3125 2700.941406 5004.222656 2693.867188 4992.476562 2688.628906 C 4980.726562 2683.410156 4967.675781 2680.785156 4953.328125 2680.785156 C 4938.972656 2680.785156 4925.882812 2683.453125 4914.046875 2688.769531 C 4902.203125 2694.089844 4892.070312 2701.214844 4883.640625 2710.140625 C 4875.210938 2719.0625 4868.660156 2729.472656 4864 2741.378906 C 4859.328125 2753.28125 4857 2765.722656 4857 2778.703125 L 4857 2779.25 C 4857 2792.226562 4859.289062 2804.628906 4863.863281 2816.441406 C 4868.4375 2828.25 4874.9375 2838.613281 4883.371094 2847.539062 C 4891.800781 2856.472656 4901.890625 2863.546875 4913.640625 2868.777344 C 4925.386719 2874.007812 4938.4375 2876.621094 4952.789062 2876.621094 C 4967.136719 2876.621094 4980.234375 2873.953125 4992.074219 2868.644531 C 5003.914062 2863.324219 5014.042969 2856.203125 5022.476562 2847.277344 C 5030.910156 2838.34375 5037.449219 2827.933594 5042.117188 2816.035156 C 5046.785156 2804.125 5049.113281 2791.691406 5049.113281 2778.703125 C 5049.292969 2778.527344 5049.292969 2778.34375 5049.113281 2778.167969 C 5049.113281 2765.179688 5046.828125 2752.789062 5042.25 2740.96875 C 5037.679688 2729.164062 5031.175781 2718.792969 5022.746094 2709.867188 Z M 5027.050781 2779.25 C 5027.050781 2790.070312 5025.207031 2800.167969 5021.535156 2809.542969 C 5017.859375 2818.921875 5012.789062 2827.117188 5006.335938 2834.15625 C 4999.875 2841.1875 4992.113281 2846.734375 4983.054688 2850.785156 C 4974 2854.847656 4964.085938 2856.875 4953.328125 2856.875 C 4942.566406 2856.875 4932.652344 2854.804688 4923.59375 2850.65625 C 4914.535156 2846.503906 4906.6875 2840.914062 4900.054688 2833.886719 C 4893.414062 2826.855469 4888.253906 2818.597656 4884.578125 2809.136719 C 4880.902344 2799.667969 4879.066406 2789.523438 4879.066406 2778.703125 L 4879.066406 2778.167969 C 4879.066406 2767.347656 4880.902344 2757.246094 4884.578125 2747.867188 C 4888.253906 2738.492188 4893.328125 2730.289062 4899.78125 2723.261719 C 4906.242188 2716.222656 4914 2710.675781 4923.058594 2706.621094 C 4932.109375 2702.566406 4942.027344 2700.53125 4952.789062 2700.53125 C 4963.550781 2700.53125 4973.460938 2702.609375 4982.519531 2706.753906 C 4991.578125 2710.902344 4999.425781 2716.492188 5006.0625 2723.523438 C 5012.699219 2730.558594 5017.859375 2738.808594 5021.535156 2748.277344 C 5025.207031 2757.738281 5027.050781 2767.882812 5027.050781 2778.703125 Z M 5027.050781 2779.25 "/>
<path fill-rule="nonzero" fill="rgb(6.271362%, 69.856262%, 94.122314%)" fill-opacity="1" d="M 4993.148438 2638.054688 L 4971.625 2628.042969 L 4946.058594 2667.261719 L 4962.742188 2667.261719 Z M 4993.148438 2638.054688 "/>
<path fill-rule="nonzero" fill="rgb(6.271362%, 69.856262%, 94.122314%)" fill-opacity="1" d="M 5501.675781 2835.78125 L 5383.019531 2684.03125 L 5363.109375 2684.03125 L 5363.109375 2873.375 L 5383.824219 2873.375 L 5383.824219 2718.117188 L 5505.445312 2873.375 L 5522.394531 2873.375 L 5522.394531 2684.03125 L 5501.675781 2684.03125 Z M 5501.675781 2835.78125 "/>
</svg>
